<svg width="24" height="24" viewBox="0 0 24 24" fill="none" xmlns="http://www.w3.org/2000/svg">
<g clip-path="url(#clip0_60_179)">
<path d="M12.002 0C8.74219 0 8.33203 0.0136719 7.05273 0.0722656C6.05743 0.0924949 5.07277 0.281371 4.14063 0.630859C3.33946 0.930393 2.61399 1.40248 2.01562 2.01367C1.40499 2.61325 0.931844 3.33829 0.628906 4.13867C0.279282 5.07138 0.091044 6.05682 0.0722656 7.05273C0.015625 8.33203 0 8.74023 0 12C0 15.2598 0.0136719 15.666 0.0722656 16.9473C0.0924949 17.9426 0.281371 18.9272 0.630859 19.8594C0.931869 20.6598 1.40376 21.385 2.01367 21.9844C2.61274 22.5956 3.33792 23.0689 4.13867 23.3711C5.07164 23.7198 6.05692 23.908 7.05273 23.9277C8.33203 23.9863 8.74023 24 12 24C15.2598 24 15.666 23.9863 16.9473 23.9277C17.9431 23.908 18.9284 23.7198 19.8613 23.3711C20.6594 23.0615 21.3843 22.589 21.9896 21.9837C22.5949 21.3784 23.0674 20.6536 23.377 19.8555C23.7246 18.9228 23.9134 17.9385 23.9355 16.9434C23.9922 15.6641 24.0078 15.2559 24.0078 11.9961C24.0078 8.73633 23.9922 8.32813 23.9355 7.04883C23.9134 6.0531 23.7246 5.06811 23.377 4.13477C23.0755 3.33411 22.6029 2.6089 21.9922 2.00977C21.3942 1.39813 20.6686 0.92597 19.8672 0.626953C18.9317 0.277932 17.9437 0.0903683 16.9453 0.0722656C15.6641 0.0136719 15.2578 0 11.998 0H12.002ZM10.9238 2.16211H12.002C15.2051 2.16211 15.584 2.17383 16.8496 2.23242C17.6106 2.24108 18.3644 2.38048 19.0781 2.64453C19.5992 2.83703 20.0704 3.14406 20.457 3.54297C20.8551 3.93024 21.162 4.40126 21.3555 4.92188C21.6195 5.63561 21.7589 6.38943 21.7676 7.15039C21.8262 8.41406 21.8379 8.79492 21.8379 11.998C21.8379 15.2012 21.8262 15.5801 21.7676 16.8457C21.7591 17.6061 21.6197 18.3593 21.3555 19.0723C21.1556 19.5894 20.8497 20.059 20.4575 20.4508C20.0653 20.8427 19.5954 21.1482 19.0781 21.3477C18.3649 21.6137 17.6108 21.7538 16.8496 21.7617C15.5859 21.8203 15.2051 21.832 12.002 21.832C8.79883 21.832 8.41797 21.8203 7.15234 21.7617C6.39126 21.7524 5.63745 21.6124 4.92383 21.3477C4.40222 21.156 3.93033 20.8496 3.54297 20.4512C3.14476 20.0644 2.83841 19.5932 2.64648 19.0723C2.38177 18.3586 2.24171 17.6048 2.23242 16.8437C2.17578 15.5781 2.16406 15.1992 2.16406 11.9941C2.16406 8.78906 2.17578 8.41211 2.23242 7.14648C2.24054 6.38529 2.38063 5.63127 2.64648 4.91797C2.83841 4.39706 3.14476 3.92586 3.54297 3.53906C3.93064 3.14052 4.4024 2.83358 4.92383 2.64063C5.63767 2.37673 6.39135 2.2367 7.15234 2.22656C8.25977 2.17773 8.6875 2.16211 10.9238 2.16016V2.16211ZM18.4062 4.1543C18.1211 4.1543 17.8423 4.23888 17.6052 4.39735C17.3682 4.55582 17.1834 4.78106 17.0744 5.04455C16.9653 5.30805 16.9369 5.59797 16.9927 5.87763C17.0485 6.15729 17.1859 6.41412 17.3877 6.61562C17.5895 6.81713 17.8465 6.95425 18.1262 7.00965C18.406 7.06505 18.6959 7.03622 18.9592 6.92683C19.2226 6.81743 19.4475 6.63238 19.6057 6.39508C19.7638 6.15779 19.848 5.87892 19.8477 5.59375C19.8477 5.40455 19.8104 5.21721 19.7379 5.04244C19.6654 4.86767 19.5592 4.7089 19.4254 4.57521C19.2915 4.44152 19.1326 4.33553 18.9577 4.26331C18.7828 4.19108 18.5954 4.15404 18.4062 4.1543ZM12.002 5.83789C10.7832 5.83789 9.59182 6.19929 8.57847 6.87639C7.56512 7.55349 6.7753 8.51588 6.30891 9.64186C5.84251 10.7678 5.72048 12.0068 5.95825 13.2022C6.19601 14.3975 6.7829 15.4955 7.64468 16.3573C8.50647 17.2191 9.60445 17.8059 10.7998 18.0437C11.9951 18.2815 13.2341 18.1594 14.3601 17.693C15.4861 17.2267 16.4485 16.4368 17.1256 15.4235C17.8027 14.4101 18.1641 13.2187 18.1641 12C18.1635 10.3659 17.5142 8.79881 16.3587 7.6433C15.2031 6.4878 13.6361 5.83841 12.002 5.83789ZM12.002 8C12.7933 7.99884 13.5673 8.23245 14.2258 8.67127C14.8844 9.11009 15.398 9.7344 15.7016 10.4652C16.0053 11.196 16.0853 12.0005 15.9317 12.7768C15.778 13.5531 15.3975 14.2664 14.8383 14.8263C14.2791 15.3863 13.5664 15.7679 12.7903 15.9227C12.0142 16.0775 11.2097 15.9987 10.4784 15.6961C9.74719 15.3935 9.12213 14.8808 8.68234 14.2229C8.24256 13.565 8.00781 12.7914 8.00781 12C8.00988 10.9415 8.43141 9.92698 9.18007 9.17869C9.92872 8.4304 10.9435 8.00936 12.002 8.00781V8Z" fill="#BB242B"/>
</g>
<defs>
<clipPath id="clip0_60_179">
<rect width="24" height="24" fill="white"/>
</clipPath>
</defs>
</svg>
