<svg width="187" height="52" viewBox="0 0 187 52" fill="none" xmlns="http://www.w3.org/2000/svg">
<path d="M42.9 1.86V51H30.93V30.77H12.31V51H0.34V1.86H12.31V21.11H30.93V1.86H42.9ZM101.031 51L96.4812 46.59C91.9545 50.0433 86.5412 51.77 80.2412 51.77C76.4612 51.77 73.1712 51.1633 70.3712 49.95C67.5712 48.69 65.4012 46.94 63.8612 44.7C62.3678 42.4133 61.6212 39.7533 61.6212 36.72C61.6212 33.64 62.4378 30.8633 64.0712 28.39C65.7512 25.87 68.2478 23.8167 71.5612 22.23C70.3478 20.7367 69.4845 19.3133 68.9712 17.96C68.4578 16.56 68.2012 15.0433 68.2012 13.41C68.2012 11.0767 68.8078 8.95333 70.0212 7.04C71.2345 5.12666 72.9845 3.63333 75.2712 2.56C77.6045 1.44 80.3578 0.879999 83.5312 0.879999C86.7512 0.879999 89.4812 1.46333 91.7212 2.63C93.9612 3.79667 95.6412 5.36 96.7612 7.32C97.8812 9.28 98.3945 11.4267 98.3012 13.76H87.0312C87.0778 12.5 86.7512 11.5433 86.0512 10.89C85.3978 10.19 84.5112 9.84 83.3912 9.84C82.2712 9.84 81.3378 10.1667 80.5912 10.82C79.8445 11.4733 79.4712 12.3133 79.4712 13.34C79.4712 14.32 79.7745 15.3467 80.3812 16.42C81.0345 17.4933 82.0378 18.73 83.3912 20.13L95.3612 31.82C95.4545 31.5867 95.5712 31.3067 95.7112 30.98C95.8978 30.6533 96.0845 30.28 96.2712 29.86L98.8612 25.45H110.831L107.471 31.54C106.211 34.2933 104.765 36.9067 103.131 39.38L114.961 51H101.031ZM80.8012 42.11C83.9278 42.11 86.7045 41.2233 89.1312 39.45L78.2112 28.88C74.8512 30.6067 73.1712 32.94 73.1712 35.88C73.1712 37.6533 73.8478 39.1467 75.2012 40.36C76.6012 41.5267 78.4678 42.11 80.8012 42.11ZM186.841 1.86V51H174.871V21.53L163.881 51H154.221L143.161 21.46V51H131.191V1.86H145.331L159.121 35.88L172.771 1.86H186.841Z" fill="#BA232A"/>
</svg>
